<svg width="66" height="11" viewBox="0 0 66 11" fill="none" xmlns="http://www.w3.org/2000/svg">
<path d="M0.758523 10V1.27273H2.60369V8.47869H6.34517V10H0.758523ZM7.53303 10V3.45455H9.34837V10H7.53303ZM8.44496 2.6108C8.17507 2.6108 7.94354 2.52131 7.75036 2.34233C7.56001 2.16051 7.46484 1.94318 7.46484 1.69034C7.46484 1.44034 7.56001 1.22585 7.75036 1.04688C7.94354 0.865057 8.17507 0.774147 8.44496 0.774147C8.71484 0.774147 8.94496 0.865057 9.1353 1.04688C9.32848 1.22585 9.42507 1.44034 9.42507 1.69034C9.42507 1.94318 9.32848 2.16051 9.1353 2.34233C8.94496 2.52131 8.71484 2.6108 8.44496 2.6108ZM16.2486 5.32102L14.5866 5.4233C14.5582 5.28125 14.4972 5.15341 14.4034 5.03977C14.3097 4.9233 14.1861 4.83097 14.0327 4.76278C13.8821 4.69176 13.7017 4.65625 13.4915 4.65625C13.2102 4.65625 12.973 4.71591 12.7798 4.83523C12.5866 4.9517 12.4901 5.10795 12.4901 5.30398C12.4901 5.46023 12.5526 5.59233 12.6776 5.70028C12.8026 5.80824 13.017 5.89489 13.321 5.96023L14.5057 6.19886C15.142 6.32955 15.6165 6.53977 15.929 6.82955C16.2415 7.11932 16.3977 7.5 16.3977 7.97159C16.3977 8.40057 16.2713 8.77699 16.0185 9.10085C15.7685 9.42472 15.4247 9.67756 14.9872 9.85938C14.5526 10.0384 14.0511 10.1278 13.483 10.1278C12.6165 10.1278 11.9261 9.94744 11.4119 9.58665C10.9006 9.22301 10.6009 8.72869 10.5128 8.10369L12.2983 8.00994C12.3523 8.27415 12.483 8.47585 12.6903 8.61506C12.8977 8.75142 13.1634 8.8196 13.4872 8.8196C13.8054 8.8196 14.0611 8.75852 14.2543 8.63636C14.4503 8.51136 14.5497 8.35085 14.5526 8.15483C14.5497 7.99006 14.4801 7.85511 14.3438 7.75C14.2074 7.64205 13.9972 7.55966 13.7131 7.50284L12.5795 7.27699C11.9403 7.14915 11.4645 6.92756 11.152 6.61222C10.8423 6.29687 10.6875 5.89489 10.6875 5.40625C10.6875 4.9858 10.8011 4.62358 11.0284 4.3196C11.2585 4.01562 11.581 3.78125 11.9957 3.61648C12.4134 3.4517 12.902 3.36932 13.4616 3.36932C14.2884 3.36932 14.9389 3.54403 15.4134 3.89347C15.8906 4.2429 16.169 4.71875 16.2486 5.32102ZM21.0224 3.45455V4.81818H17.0806V3.45455H21.0224ZM17.9755 1.88636H19.7908V7.98864C19.7908 8.15625 19.8164 8.28693 19.8675 8.38068C19.9187 8.47159 19.9897 8.53551 20.0806 8.57244C20.1744 8.60937 20.2823 8.62784 20.4045 8.62784C20.4897 8.62784 20.5749 8.62074 20.6602 8.60653C20.7454 8.58949 20.8107 8.5767 20.8562 8.56818L21.1417 9.91903C21.0508 9.94744 20.9229 9.98011 20.7582 10.017C20.5934 10.0568 20.3931 10.081 20.1573 10.0895C19.7198 10.1065 19.3363 10.0483 19.0067 9.91477C18.68 9.78125 18.4258 9.57386 18.244 9.29261C18.0621 9.01136 17.9727 8.65625 17.9755 8.22727V1.88636ZM32.9968 6.21591V10H31.1815V3.45455H32.9116V4.60938H32.9883C33.1332 4.22869 33.3761 3.92756 33.717 3.70597C34.0579 3.48153 34.4712 3.36932 34.957 3.36932C35.4116 3.36932 35.8079 3.46875 36.146 3.66761C36.484 3.86648 36.7468 4.15057 36.9343 4.51989C37.1218 4.88636 37.2156 5.32386 37.2156 5.83239V10H35.4002V6.15625C35.4031 5.75568 35.3008 5.44318 35.0934 5.21875C34.886 4.99148 34.6005 4.87784 34.2369 4.87784C33.9925 4.87784 33.7766 4.9304 33.5891 5.03551C33.4045 5.14062 33.2596 5.29403 33.1545 5.49574C33.0522 5.6946 32.9996 5.93466 32.9968 6.21591ZM38.6463 10V3.45455H40.4616V10H38.6463ZM39.5582 2.6108C39.2884 2.6108 39.0568 2.52131 38.8636 2.34233C38.6733 2.16051 38.5781 1.94318 38.5781 1.69034C38.5781 1.44034 38.6733 1.22585 38.8636 1.04688C39.0568 0.865057 39.2884 0.774147 39.5582 0.774147C39.8281 0.774147 40.0582 0.865057 40.2486 1.04688C40.4418 1.22585 40.5384 1.44034 40.5384 1.69034C40.5384 1.94318 40.4418 2.16051 40.2486 2.34233C40.0582 2.52131 39.8281 2.6108 39.5582 2.6108ZM41.9158 10V3.45455H43.646V4.60938H43.7227C43.859 4.22585 44.0863 3.9233 44.4045 3.7017C44.7227 3.48011 45.1033 3.36932 45.5465 3.36932C45.9954 3.36932 46.3775 3.48153 46.6928 3.70597C47.0082 3.92756 47.2184 4.22869 47.3235 4.60938H47.3917C47.5252 4.23438 47.7667 3.93466 48.1161 3.71023C48.4684 3.48295 48.8846 3.36932 49.3647 3.36932C49.9755 3.36932 50.4712 3.56392 50.8519 3.95312C51.2354 4.33949 51.4272 4.88778 51.4272 5.59801V10H49.6161V5.95597C49.6161 5.59233 49.5195 5.3196 49.3263 5.13778C49.1332 4.95597 48.8917 4.86506 48.6019 4.86506C48.2724 4.86506 48.0153 4.97017 47.8306 5.1804C47.646 5.38778 47.5536 5.66193 47.5536 6.00284V10H45.7937V5.91761C45.7937 5.59659 45.7013 5.34091 45.5167 5.15057C45.3349 4.96023 45.0948 4.86506 44.7965 4.86506C44.5948 4.86506 44.413 4.91619 44.2511 5.01847C44.092 5.1179 43.9656 5.25852 43.8718 5.44034C43.7781 5.61932 43.7312 5.82955 43.7312 6.07102V10H41.9158ZM55.8441 10.1278C55.1708 10.1278 54.5913 9.99148 54.1055 9.71875C53.6225 9.44318 53.2504 9.05398 52.989 8.55114C52.7276 8.04545 52.5969 7.44744 52.5969 6.7571C52.5969 6.08381 52.7276 5.4929 52.989 4.98438C53.2504 4.47585 53.6183 4.07955 54.0927 3.79545C54.57 3.51136 55.1296 3.36932 55.7717 3.36932C56.2035 3.36932 56.6055 3.43892 56.9776 3.57812C57.3526 3.71449 57.6793 3.92045 57.9577 4.19602C58.239 4.47159 58.4577 4.81818 58.614 5.2358C58.7702 5.65057 58.8484 6.13636 58.8484 6.69318V7.19176H53.3214V6.06676H57.1396C57.1396 5.8054 57.0827 5.57386 56.9691 5.37216C56.8555 5.17045 56.6978 5.01278 56.4961 4.89915C56.2972 4.78267 56.0657 4.72443 55.8015 4.72443C55.5259 4.72443 55.2816 4.78835 55.0685 4.91619C54.8583 5.04119 54.6935 5.21023 54.5742 5.4233C54.4549 5.63352 54.3938 5.8679 54.391 6.12642V7.19602C54.391 7.51989 54.4506 7.79972 54.57 8.03551C54.6921 8.27131 54.864 8.45312 55.0856 8.58097C55.3072 8.70881 55.57 8.77273 55.8739 8.77273C56.0756 8.77273 56.2603 8.74432 56.4279 8.6875C56.5955 8.63068 56.739 8.54545 56.8583 8.43182C56.9776 8.31818 57.0685 8.17898 57.131 8.0142L58.81 8.125C58.7248 8.52841 58.5501 8.88068 58.2859 9.18182C58.0245 9.48011 57.6864 9.71307 57.2717 9.88068C56.8597 10.0455 56.3839 10.1278 55.8441 10.1278ZM65.479 5.32102L63.8171 5.4233C63.7887 5.28125 63.7276 5.15341 63.6339 5.03977C63.5401 4.9233 63.4165 4.83097 63.2631 4.76278C63.1126 4.69176 62.9322 4.65625 62.7219 4.65625C62.4407 4.65625 62.2035 4.71591 62.0103 4.83523C61.8171 4.9517 61.7205 5.10795 61.7205 5.30398C61.7205 5.46023 61.783 5.59233 61.908 5.70028C62.033 5.80824 62.2475 5.89489 62.5515 5.96023L63.7362 6.19886C64.3725 6.32955 64.8469 6.53977 65.1594 6.82955C65.4719 7.11932 65.6282 7.5 65.6282 7.97159C65.6282 8.40057 65.5018 8.77699 65.2489 9.10085C64.9989 9.42472 64.6552 9.67756 64.2177 9.85938C63.783 10.0384 63.2816 10.1278 62.7134 10.1278C61.8469 10.1278 61.1566 9.94744 60.6424 9.58665C60.131 9.22301 59.8313 8.72869 59.7433 8.10369L61.5288 8.00994C61.5827 8.27415 61.7134 8.47585 61.9208 8.61506C62.1282 8.75142 62.3938 8.8196 62.7177 8.8196C63.0359 8.8196 63.2915 8.75852 63.4847 8.63636C63.6808 8.51136 63.7802 8.35085 63.783 8.15483C63.7802 7.99006 63.7106 7.85511 63.5742 7.75C63.4379 7.64205 63.2276 7.55966 62.9435 7.50284L61.81 7.27699C61.1708 7.14915 60.695 6.92756 60.3825 6.61222C60.0728 6.29687 59.918 5.89489 59.918 5.40625C59.918 4.9858 60.0316 4.62358 60.2589 4.3196C60.489 4.01562 60.8114 3.78125 61.2262 3.61648C61.6438 3.4517 62.1325 3.36932 62.6921 3.36932C63.5188 3.36932 64.1694 3.54403 64.6438 3.89347C65.1211 4.2429 65.3995 4.71875 65.479 5.32102Z" fill="white"/>
<path d="M23.7433 10H21.766L24.7788 1.27273H27.1566L30.1651 10H28.1879L26.0018 3.26705H25.9336L23.7433 10ZM23.6197 6.5696H28.2901V8.00994H23.6197V6.5696Z" fill="#FF0000"/>
</svg>
